<mxfile host="app.diagrams.net" agent="Mozilla/5.0 (Macintosh; Intel Mac OS X 10_15_7) AppleWebKit/537.36 (KHTML, like Gecko) Chrome/138.0.0.0 Safari/537.36" version="28.0.6">
  <diagram name="Page-1" id="gRlSLP6TgGsexbvpsuue">
    <mxGraphModel dx="1018" dy="570" grid="1" gridSize="10" guides="1" tooltips="1" connect="1" arrows="1" fold="1" page="1" pageScale="1" pageWidth="827" pageHeight="1169" math="0" shadow="0">
      <root>
        <mxCell id="0" />
        <mxCell id="1" parent="0" />
        <mxCell id="GlHfBi_y4fiw5sSQIDAW-3" value="" style="edgeStyle=orthogonalEdgeStyle;rounded=0;orthogonalLoop=1;jettySize=auto;html=1;" edge="1" parent="1" source="GlHfBi_y4fiw5sSQIDAW-1" target="GlHfBi_y4fiw5sSQIDAW-2">
          <mxGeometry relative="1" as="geometry" />
        </mxCell>
        <mxCell id="GlHfBi_y4fiw5sSQIDAW-1" value="TouchEvent" style="rounded=1;whiteSpace=wrap;html=1;" vertex="1" parent="1">
          <mxGeometry x="40" y="290" width="120" height="60" as="geometry" />
        </mxCell>
        <mxCell id="GlHfBi_y4fiw5sSQIDAW-11" style="edgeStyle=orthogonalEdgeStyle;rounded=0;orthogonalLoop=1;jettySize=auto;html=1;entryX=0;entryY=0.5;entryDx=0;entryDy=0;exitX=0.5;exitY=0;exitDx=0;exitDy=0;curved=1;" edge="1" parent="1" source="GlHfBi_y4fiw5sSQIDAW-2" target="GlHfBi_y4fiw5sSQIDAW-4">
          <mxGeometry relative="1" as="geometry" />
        </mxCell>
        <mxCell id="GlHfBi_y4fiw5sSQIDAW-12" style="edgeStyle=orthogonalEdgeStyle;rounded=0;orthogonalLoop=1;jettySize=auto;html=1;exitX=1;exitY=0;exitDx=0;exitDy=0;entryX=0;entryY=0.5;entryDx=0;entryDy=0;curved=1;" edge="1" parent="1" source="GlHfBi_y4fiw5sSQIDAW-2" target="GlHfBi_y4fiw5sSQIDAW-5">
          <mxGeometry relative="1" as="geometry">
            <Array as="points">
              <mxPoint x="320" y="292" />
              <mxPoint x="320" y="200" />
            </Array>
          </mxGeometry>
        </mxCell>
        <mxCell id="GlHfBi_y4fiw5sSQIDAW-13" style="edgeStyle=orthogonalEdgeStyle;rounded=0;orthogonalLoop=1;jettySize=auto;html=1;entryX=0;entryY=0.5;entryDx=0;entryDy=0;curved=1;" edge="1" parent="1" source="GlHfBi_y4fiw5sSQIDAW-2" target="GlHfBi_y4fiw5sSQIDAW-6">
          <mxGeometry relative="1" as="geometry" />
        </mxCell>
        <mxCell id="GlHfBi_y4fiw5sSQIDAW-14" style="edgeStyle=orthogonalEdgeStyle;rounded=0;orthogonalLoop=1;jettySize=auto;html=1;entryX=0;entryY=0.5;entryDx=0;entryDy=0;curved=1;" edge="1" parent="1" source="GlHfBi_y4fiw5sSQIDAW-2" target="GlHfBi_y4fiw5sSQIDAW-7">
          <mxGeometry relative="1" as="geometry" />
        </mxCell>
        <mxCell id="GlHfBi_y4fiw5sSQIDAW-16" style="edgeStyle=orthogonalEdgeStyle;rounded=0;orthogonalLoop=1;jettySize=auto;html=1;exitX=1;exitY=1;exitDx=0;exitDy=0;entryX=0;entryY=0.5;entryDx=0;entryDy=0;curved=1;" edge="1" parent="1" source="GlHfBi_y4fiw5sSQIDAW-2" target="GlHfBi_y4fiw5sSQIDAW-8">
          <mxGeometry relative="1" as="geometry">
            <Array as="points">
              <mxPoint x="320" y="348" />
              <mxPoint x="320" y="500" />
            </Array>
          </mxGeometry>
        </mxCell>
        <mxCell id="GlHfBi_y4fiw5sSQIDAW-17" style="edgeStyle=orthogonalEdgeStyle;rounded=0;orthogonalLoop=1;jettySize=auto;html=1;entryX=0;entryY=0.5;entryDx=0;entryDy=0;exitX=0.5;exitY=1;exitDx=0;exitDy=0;curved=1;" edge="1" parent="1" source="GlHfBi_y4fiw5sSQIDAW-2" target="GlHfBi_y4fiw5sSQIDAW-9">
          <mxGeometry relative="1" as="geometry" />
        </mxCell>
        <mxCell id="GlHfBi_y4fiw5sSQIDAW-24" style="edgeStyle=orthogonalEdgeStyle;rounded=0;orthogonalLoop=1;jettySize=auto;html=1;entryX=0.5;entryY=1;entryDx=0;entryDy=0;curved=1;exitX=0.5;exitY=1;exitDx=0;exitDy=0;" edge="1" parent="1" source="GlHfBi_y4fiw5sSQIDAW-2" target="GlHfBi_y4fiw5sSQIDAW-10">
          <mxGeometry relative="1" as="geometry">
            <Array as="points">
              <mxPoint x="270" y="700" />
              <mxPoint x="720" y="700" />
            </Array>
          </mxGeometry>
        </mxCell>
        <mxCell id="GlHfBi_y4fiw5sSQIDAW-25" value="Unrecognised" style="edgeLabel;html=1;align=center;verticalAlign=middle;resizable=0;points=[];" vertex="1" connectable="0" parent="GlHfBi_y4fiw5sSQIDAW-24">
          <mxGeometry x="-0.0088" y="-1" relative="1" as="geometry">
            <mxPoint as="offset" />
          </mxGeometry>
        </mxCell>
        <mxCell id="GlHfBi_y4fiw5sSQIDAW-2" value="Decode" style="ellipse;whiteSpace=wrap;html=1;" vertex="1" parent="1">
          <mxGeometry x="210" y="280" width="120" height="80" as="geometry" />
        </mxCell>
        <mxCell id="GlHfBi_y4fiw5sSQIDAW-18" style="edgeStyle=orthogonalEdgeStyle;rounded=0;orthogonalLoop=1;jettySize=auto;html=1;entryX=0.5;entryY=0;entryDx=0;entryDy=0;curved=1;" edge="1" parent="1" source="GlHfBi_y4fiw5sSQIDAW-4" target="GlHfBi_y4fiw5sSQIDAW-10">
          <mxGeometry relative="1" as="geometry" />
        </mxCell>
        <mxCell id="GlHfBi_y4fiw5sSQIDAW-4" value="Invoke &lt;i&gt;ClockSet&lt;/i&gt;" style="rounded=1;whiteSpace=wrap;html=1;" vertex="1" parent="1">
          <mxGeometry x="430" y="80" width="120" height="60" as="geometry" />
        </mxCell>
        <mxCell id="GlHfBi_y4fiw5sSQIDAW-19" style="edgeStyle=orthogonalEdgeStyle;rounded=0;orthogonalLoop=1;jettySize=auto;html=1;entryX=0;entryY=0;entryDx=0;entryDy=0;curved=1;" edge="1" parent="1" source="GlHfBi_y4fiw5sSQIDAW-5" target="GlHfBi_y4fiw5sSQIDAW-10">
          <mxGeometry relative="1" as="geometry" />
        </mxCell>
        <mxCell id="GlHfBi_y4fiw5sSQIDAW-5" value="Invoke &lt;i&gt;TempSet&lt;/i&gt;" style="rounded=1;whiteSpace=wrap;html=1;" vertex="1" parent="1">
          <mxGeometry x="430" y="170" width="120" height="60" as="geometry" />
        </mxCell>
        <mxCell id="GlHfBi_y4fiw5sSQIDAW-20" style="edgeStyle=orthogonalEdgeStyle;rounded=0;orthogonalLoop=1;jettySize=auto;html=1;entryX=0;entryY=0.25;entryDx=0;entryDy=0;curved=1;" edge="1" parent="1" source="GlHfBi_y4fiw5sSQIDAW-6" target="GlHfBi_y4fiw5sSQIDAW-10">
          <mxGeometry relative="1" as="geometry" />
        </mxCell>
        <mxCell id="GlHfBi_y4fiw5sSQIDAW-6" value="Invoke &lt;i&gt;TransitionMode&lt;/i&gt;" style="rounded=1;whiteSpace=wrap;html=1;" vertex="1" parent="1">
          <mxGeometry x="430" y="270" width="120" height="60" as="geometry" />
        </mxCell>
        <mxCell id="GlHfBi_y4fiw5sSQIDAW-21" style="edgeStyle=orthogonalEdgeStyle;rounded=0;orthogonalLoop=1;jettySize=auto;html=1;entryX=0;entryY=0.75;entryDx=0;entryDy=0;curved=1;" edge="1" parent="1" source="GlHfBi_y4fiw5sSQIDAW-7" target="GlHfBi_y4fiw5sSQIDAW-10">
          <mxGeometry relative="1" as="geometry" />
        </mxCell>
        <mxCell id="GlHfBi_y4fiw5sSQIDAW-7" value="Invoke &lt;i&gt;BlindsSet&lt;/i&gt;" style="rounded=1;whiteSpace=wrap;html=1;" vertex="1" parent="1">
          <mxGeometry x="430" y="370" width="120" height="60" as="geometry" />
        </mxCell>
        <mxCell id="GlHfBi_y4fiw5sSQIDAW-22" style="edgeStyle=orthogonalEdgeStyle;rounded=0;orthogonalLoop=1;jettySize=auto;html=1;exitX=1;exitY=0.5;exitDx=0;exitDy=0;entryX=0;entryY=1;entryDx=0;entryDy=0;curved=1;" edge="1" parent="1" source="GlHfBi_y4fiw5sSQIDAW-8" target="GlHfBi_y4fiw5sSQIDAW-10">
          <mxGeometry relative="1" as="geometry" />
        </mxCell>
        <mxCell id="GlHfBi_y4fiw5sSQIDAW-8" value="Invoke &lt;i&gt;CoffeeEnable&lt;/i&gt;" style="rounded=1;whiteSpace=wrap;html=1;" vertex="1" parent="1">
          <mxGeometry x="430" y="470" width="120" height="60" as="geometry" />
        </mxCell>
        <mxCell id="GlHfBi_y4fiw5sSQIDAW-23" style="edgeStyle=orthogonalEdgeStyle;rounded=0;orthogonalLoop=1;jettySize=auto;html=1;entryX=0.5;entryY=1;entryDx=0;entryDy=0;curved=1;" edge="1" parent="1" source="GlHfBi_y4fiw5sSQIDAW-9" target="GlHfBi_y4fiw5sSQIDAW-10">
          <mxGeometry relative="1" as="geometry" />
        </mxCell>
        <mxCell id="GlHfBi_y4fiw5sSQIDAW-9" value="Invoke &lt;i&gt;DoorbellEnable&lt;/i&gt;" style="rounded=1;whiteSpace=wrap;html=1;" vertex="1" parent="1">
          <mxGeometry x="430" y="570" width="120" height="60" as="geometry" />
        </mxCell>
        <mxCell id="GlHfBi_y4fiw5sSQIDAW-10" value="Idle" style="rounded=1;whiteSpace=wrap;html=1;" vertex="1" parent="1">
          <mxGeometry x="660" y="290" width="120" height="60" as="geometry" />
        </mxCell>
      </root>
    </mxGraphModel>
  </diagram>
</mxfile>
